<svg width="38" height="38" viewBox="0 0 38 38" fill="none" xmlns="http://www.w3.org/2000/svg">
<g clip-path="url(#clip0_1255_138564)">
<path d="M9.46484 26C10.4066 23.8495 10.8951 21.4804 10.8918 19.0793C10.89 17.9118 11.1204 16.7588 11.5659 15.7063C12.0114 14.6537 12.6605 13.7287 13.4648 13" stroke="url(#paint0_linear_1255_138564)" stroke-width="1.4" stroke-linecap="round" stroke-linejoin="round"/>
<path d="M18.4648 19C18.4707 23.1984 17.4381 27.3288 15.4648 31" stroke="url(#paint1_linear_1255_138564)" stroke-width="1.4" stroke-linecap="round" stroke-linejoin="round"/>
<path d="M14.4648 19.0185C14.4648 17.9527 14.9389 16.9306 15.7829 16.177C16.6268 15.4234 17.7714 15 18.9648 15C20.1583 15 21.3029 15.4234 22.1468 16.177C22.9907 16.9306 23.4648 17.9527 23.4648 19.0185C23.4713 23.1608 22.4493 27.2528 20.4723 31" stroke="url(#paint2_linear_1255_138564)" stroke-width="1.4" stroke-linecap="round" stroke-linejoin="round"/>
<path d="M30.7761 26C31.2354 23.6943 31.466 21.3499 31.4648 19C31.4648 15.8174 30.1844 12.7652 27.9051 10.5147C25.6258 8.26428 22.5345 7 19.3111 7C16.0877 7 12.9964 8.26428 10.7171 10.5147C8.43783 12.7652 7.15735 15.8174 7.15735 19C7.15867 20.3625 6.92448 21.7153 6.46484 23" stroke="url(#paint3_linear_1255_138564)" stroke-width="1.4" stroke-linecap="round" stroke-linejoin="round"/>
<path d="M14.4648 23C14.0877 25.1096 13.4123 27.1358 12.4648 29" stroke="url(#paint4_linear_1255_138564)" stroke-width="1.4" stroke-linecap="round" stroke-linejoin="round"/>
<path d="M17.4648 11.0612C17.8335 11.0206 18.2045 11.0001 18.576 11C20.9334 11 23.1944 11.8429 24.8613 13.3431C26.5283 14.8434 27.4648 16.8783 27.4648 19C27.4638 20.3372 27.3711 21.6731 27.1871 23" stroke="url(#paint5_linear_1255_138564)" stroke-width="1.4" stroke-linecap="round" stroke-linejoin="round"/>
<path d="M26.4648 27C26.1714 27.6766 25.8381 28.3432 25.4648 29" stroke="url(#paint6_linear_1255_138564)" stroke-width="1.4" stroke-linecap="round" stroke-linejoin="round"/>
</g>
<defs>
<linearGradient id="paint0_linear_1255_138564" x1="11.4648" y1="13" x2="11.4648" y2="26" gradientUnits="userSpaceOnUse">
<stop stop-color="#075EAA"/>
<stop offset="1" stop-color="#4E96D5"/>
</linearGradient>
<linearGradient id="paint1_linear_1255_138564" x1="16.9648" y1="19" x2="16.9648" y2="31" gradientUnits="userSpaceOnUse">
<stop stop-color="#075EAA"/>
<stop offset="1" stop-color="#4E96D5"/>
</linearGradient>
<linearGradient id="paint2_linear_1255_138564" x1="18.9648" y1="15" x2="18.9648" y2="31" gradientUnits="userSpaceOnUse">
<stop stop-color="#075EAA"/>
<stop offset="1" stop-color="#4E96D5"/>
</linearGradient>
<linearGradient id="paint3_linear_1255_138564" x1="18.9648" y1="7" x2="18.9648" y2="26" gradientUnits="userSpaceOnUse">
<stop stop-color="#075EAA"/>
<stop offset="1" stop-color="#4E96D5"/>
</linearGradient>
<linearGradient id="paint4_linear_1255_138564" x1="13.4648" y1="23" x2="13.4648" y2="29" gradientUnits="userSpaceOnUse">
<stop stop-color="#075EAA"/>
<stop offset="1" stop-color="#4E96D5"/>
</linearGradient>
<linearGradient id="paint5_linear_1255_138564" x1="22.4648" y1="11" x2="22.4648" y2="23" gradientUnits="userSpaceOnUse">
<stop stop-color="#075EAA"/>
<stop offset="1" stop-color="#4E96D5"/>
</linearGradient>
<linearGradient id="paint6_linear_1255_138564" x1="25.9648" y1="27" x2="25.9648" y2="29" gradientUnits="userSpaceOnUse">
<stop stop-color="#075EAA"/>
<stop offset="1" stop-color="#4E96D5"/>
</linearGradient>
<clipPath id="clip0_1255_138564">
<rect width="38" height="38" fill="white"/>
</clipPath>
</defs>
</svg>
